<svg width="100" height="100" viewBox="0 0 100 100" fill="none" xmlns="http://www.w3.org/2000/svg">
<circle cx="50" cy="50" r="49" stroke="white" stroke-width="2"/>
<path d="M50 36.2103C47.2805 36.2103 44.6221 37.0148 42.3609 38.522C40.0997 40.0292 38.3374 42.1714 37.2967 44.6777C36.256 47.1841 35.9837 49.942 36.5142 52.6027C37.0448 55.2634 38.3543 57.7075 40.2773 59.6258C42.2003 61.544 44.6503 62.8504 47.3175 63.3797C49.9847 63.9089 52.7494 63.6373 55.2619 62.5991C57.7744 61.5609 59.9218 59.8029 61.4327 57.5472C62.9436 55.2916 63.75 52.6396 63.75 49.9268C63.75 46.2889 62.3013 42.8001 59.7227 40.2278C57.1441 37.6555 53.6467 36.2103 50 36.2103ZM50 61.1493C47.775 61.1493 45.5999 60.4911 43.7498 59.258C41.8998 58.0248 40.4578 56.2721 39.6064 54.2214C38.7549 52.1708 38.5321 49.9143 38.9662 47.7374C39.4002 45.5604 40.4717 43.5607 42.045 41.9912C43.6184 40.4217 45.6229 39.3529 47.8052 38.9199C49.9875 38.4868 52.2495 38.7091 54.3052 39.5585C56.3609 40.4079 58.1179 41.8463 59.354 43.6919C60.5902 45.5374 61.25 47.7072 61.25 49.9268C61.25 52.9032 60.0647 55.7577 57.9549 57.8623C55.8452 59.9669 52.9837 61.1493 50 61.1493ZM63.75 20H36.25C31.9402 20 27.807 21.7079 24.7595 24.7479C21.712 27.7879 20 31.9111 20 36.2103V63.6432C20 65.772 20.4203 67.8799 21.237 69.8466C22.0536 71.8134 23.2506 73.6004 24.7595 75.1056C27.807 78.1457 31.9402 79.8535 36.25 79.8535H63.75C65.884 79.8535 67.9971 79.4342 69.9686 78.6196C71.9401 77.805 73.7315 76.6109 75.2405 75.1056C76.7494 73.6004 77.9464 71.8134 78.763 69.8466C79.5797 67.8799 80 65.772 80 63.6432V36.2103C80 34.0816 79.5797 31.9736 78.763 30.0069C77.9464 28.0402 76.7494 26.2532 75.2405 24.7479C73.7315 23.2426 71.9401 22.0486 69.9686 21.2339C67.9971 20.4193 65.884 20 63.75 20ZM77.5 63.6432C77.5 67.281 76.0513 70.7699 73.4727 73.3422C70.8941 75.9145 67.3967 77.3596 63.75 77.3596H36.25C32.6033 77.3596 29.1059 75.9145 26.5273 73.3422C23.9487 70.7699 22.5 67.281 22.5 63.6432V36.2103C22.5 32.5725 23.9487 29.0837 26.5273 26.5113C29.1059 23.939 32.6033 22.4939 36.25 22.4939H63.75C67.3967 22.4939 70.8941 23.939 73.4727 26.5113C76.0513 29.0837 77.5 32.5725 77.5 36.2103V63.6432ZM68.75 33.7164C68.75 34.2097 68.6034 34.6919 68.3287 35.102C68.054 35.5121 67.6635 35.8317 67.2067 36.0205C66.7499 36.2093 66.2472 36.2586 65.7623 36.1624C65.2773 36.0662 64.8319 35.8287 64.4822 35.4799C64.1326 35.1311 63.8945 34.6867 63.798 34.203C63.7016 33.7192 63.7511 33.2178 63.9403 32.7621C64.1295 32.3064 64.4499 31.9169 64.8611 31.6428C65.2722 31.3688 65.7555 31.2225 66.25 31.2225C66.913 31.2225 67.5489 31.4853 68.0178 31.953C68.4866 32.4207 68.75 33.055 68.75 33.7164Z" fill="white"/>
</svg>
