<svg width="100" height="100" viewBox="0 0 100 100" fill="none" xmlns="http://www.w3.org/2000/svg">
<circle cx="50" cy="50" r="49" stroke="white" stroke-width="2"/>
<path d="M57.7778 36.542C57.7778 36.248 57.8948 35.9661 58.1032 35.7582C58.3116 35.5504 58.5942 35.4336 58.8889 35.4336H76.6667C76.9614 35.4336 77.244 35.5504 77.4523 35.7582C77.6607 35.9661 77.7778 36.248 77.7778 36.542C77.7778 36.836 77.6607 37.1179 77.4523 37.3258C77.244 37.5336 76.9614 37.6504 76.6667 37.6504H58.8889C58.5942 37.6504 58.3116 37.5336 58.1032 37.3258C57.8948 37.1179 57.7778 36.836 57.7778 36.542ZM80 56.4932C80 56.7871 79.8829 57.0691 79.6746 57.2769C79.4662 57.4848 79.1836 57.6016 78.8889 57.6016H57.8333C58.0481 59.4675 58.785 61.2354 59.9599 62.703C61.1348 64.1706 62.7002 65.2786 64.4768 65.9002C66.2535 66.5218 68.1697 66.6319 70.0061 66.2179C71.8426 65.8039 73.5251 64.8826 74.8611 63.5592C75.0751 63.3991 75.3398 63.3214 75.6065 63.3403C75.8733 63.3592 76.1243 63.4735 76.3135 63.6622C76.5026 63.8508 76.6171 64.1012 76.6361 64.3674C76.6551 64.6335 76.5771 64.8975 76.4167 65.111C74.4163 67.1048 71.7848 68.345 68.9705 68.6203C66.1563 68.8956 63.3334 68.1889 60.9829 66.6207C58.6324 65.0524 56.8998 62.7197 56.0802 60.0199C55.2606 57.3201 55.4048 54.4204 56.4882 51.8148C57.5717 49.2092 59.5273 47.0589 62.0218 45.7305C64.5164 44.402 67.3955 43.9775 70.1686 44.5293C72.9418 45.0811 75.4373 46.5751 77.23 48.7566C79.0227 50.9382 80.0016 53.6723 80 56.4932ZM77.7222 55.3848C77.4622 52.9346 76.3025 50.6671 74.4663 49.0191C72.6302 47.3711 70.2477 46.4592 67.7778 46.4592C65.3079 46.4592 62.9253 47.3711 61.0892 49.0191C59.2531 50.6671 58.0933 52.9346 57.8333 55.3848H77.7222ZM50 58.1558C50 60.9485 48.8879 63.6267 46.9084 65.6015C44.9288 67.5762 42.244 68.6856 39.4444 68.6856H21.1111C20.8164 68.6856 20.5338 68.5688 20.3254 68.3609C20.1171 68.1531 20 67.8711 20 67.5772V32.1084C20 31.8144 20.1171 31.5325 20.3254 31.3246C20.5338 31.1168 20.8164 31 21.1111 31H36.1111C38.0863 30.9979 40.0125 31.6137 41.6186 32.7606C43.2247 33.9076 44.4299 35.528 45.0647 37.3939C45.6994 39.2598 45.7317 41.2772 45.157 43.1624C44.5824 45.0476 43.4297 46.7056 41.8611 47.9031C44.1777 48.4466 46.2422 49.7551 47.7196 51.6162C49.197 53.4773 50.0006 55.7818 50 58.1558V58.1558ZM22.2222 47.626H36.1111C38.0266 47.626 39.8636 46.8669 41.218 45.5158C42.5724 44.1647 43.3333 42.3322 43.3333 40.4214C43.3333 38.5106 42.5724 36.6781 41.218 35.327C39.8636 33.9759 38.0266 33.2168 36.1111 33.2168H22.2222V47.626ZM47.7778 58.1558C47.7705 55.9533 46.8901 53.8431 45.3289 52.2857C43.7677 50.7283 41.6523 49.8501 39.4444 49.8428H22.2222V66.4688H39.4444C41.6523 66.4615 43.7677 65.5833 45.3289 64.0259C46.8901 62.4685 47.7705 60.3583 47.7778 58.1558V58.1558Z" fill="white"/>
</svg>
