<svg xmlns="http://www.w3.org/2000/svg" viewBox="0 0 290.59 290.94"><defs><style>.cls-1{fill:#fff;}</style></defs><g id="圖層_2" data-name="圖層 2"><g id="圖層_1-2" data-name="圖層 1"><path class="cls-1" d="M174,262.25l3.5-1.2,9.4,8.28,4.36-1.49-3.51-10.29,3.11-1.06,8.29,24.3-7.63,2.6q-8.47,2.82-10.81-3.93a6.72,6.72,0,0,1,1.9-7.76,13.92,13.92,0,0,1,1.27-.94Zm21.19,17.11-3.08-9L188,271.72q-5.84,2.07-4.29,6.7a4.06,4.06,0,0,0,4.74,3,13.65,13.65,0,0,0,2.63-.64Z"/><path class="cls-1" d="M168,263.32l3.49,25.43-14.7,2-.37-2.71,11.44-1.57-1.09-8-9.62,1.32-.37-2.75,9.61-1.31-1.26-9.25-11.82,1.62-.38-2.74Z"/><path class="cls-1" d="M131.66,264.86l2.07,7.94,9.35.46,2.89-7.69,3.27.16-10,25.21-3.62-.19-7.39-26.06Zm10.48,11-7.75-.39,1,4c.46,1.68,1.18,4.62,2.16,8.8h.14c.94-2.85,1.94-5.69,3-8.54Z"/><path class="cls-1" d="M123.15,263.72l-6.38,24.86L110.51,287c-5.21-1.33-8.2-4.19-9-8.55a16.49,16.49,0,0,1,.44-6.81q2-7.74,7.72-9.55a12.79,12.79,0,0,1,7.08,0Zm-3.84,1.77-2.81-.73q-6.56-1.68-9.74,3.71a16.27,16.27,0,0,0-1.55,4q-2.11,8.24,3.83,11.18a12,12,0,0,0,2.39.86l2.81.73Z"/><path class="cls-1" d="M89.48,252.4,75.69,274l-3.32-2.11,3.24-14.23q0-.1,1.31-5.49l-.15-.09-4.34,3.56-11.5,9-3.32-2.12,13.8-21.64L74,242.51l-7.65,12q-1.17,1.84-4.4,6.15l.11.08,4.84-3.85,11.29-8.61L80,249.42l-3.08,13.85-1.41,6,.12.07c2-3.63,3.26-5.82,3.74-6.57l7.64-12Z"/><path class="cls-1" d="M58.75,228.31A9.78,9.78,0,0,1,61.58,237a15.2,15.2,0,0,1-4.84,8.46q-5,4.82-10.31,4.52a10,10,0,0,1-6.83-3.24A9.77,9.77,0,0,1,36.77,238a15.06,15.06,0,0,1,4.77-8.25q5-4.78,10.28-4.59A9.88,9.88,0,0,1,58.75,228.31Zm-2,2a6.58,6.58,0,0,0-6.79-1.82,13.74,13.74,0,0,0-6.08,3.63q-4.34,4.17-4.12,8.39a6.94,6.94,0,0,0,8.87,6.16,13.87,13.87,0,0,0,5.82-3.57q4.29-4.12,4.2-8.31A6.54,6.54,0,0,0,56.71,230.28Z"/><path class="cls-1" d="M37.42,199.83,39.36,203l-6,11,2.43,3.92,9.24-5.72L46.8,215,25,228.48l-4.24-6.86q-4.65-7.62,1.41-11.41a6.73,6.73,0,0,1,8,.12,13.89,13.89,0,0,1,1.19,1ZM25.48,224.31l8.11-5-2.27-3.66q-3.32-5.22-7.48-2.68A4,4,0,0,0,22,218.22a13.39,13.39,0,0,0,1.22,2.42Z"/><path class="cls-1" d="M35,194.27l-24,9.09L5.78,189.49l2.56-1,4.09,10.81L20,196.47l-3.44-9.08,2.59-1,3.44,9.08,8.73-3.31L27.06,181l2.59-1Z"/><path class="cls-1" d="M17.56,165.94l-2.24.22-1.53-15.48,2.25-.22Z"/><path class="cls-1" d="M28.28,115.2l-.61,3.64-11.76,4.31-.77,4.55,10.72,1.82-.55,3.23L0,128.46l1.35-8q1.56-8.79,8.61-7.62a6.7,6.7,0,0,1,5.91,5.37,12.74,12.74,0,0,1,.22,1.56ZM3.14,125.67l9.41,1.59.72-4.24q1-6.12-3.85-7a4.05,4.05,0,0,0-4.87,2.75,13.22,13.22,0,0,0-.69,2.62Z"/><path class="cls-1" d="M30.18,109.44l-24-9.07L11.4,86.49l2.56,1L9.88,98.27l7.55,2.85L20.86,92l2.59,1L20,102.1l8.73,3.29L33,94.23l2.59,1Z"/><path class="cls-1" d="M46.19,76.81l-8-2-4.89,8L38.71,89,37,91.82,19.66,71l1.9-3.09,26.42,6ZM31.55,80.74l4.06-6.61-4-1q-2.55-.6-8.76-2.32l-.07.12q3.07,3.28,6.07,6.72Z"/><path class="cls-1" d="M51.28,69.88,32.51,52.38l4.4-4.73q5.51-5.9,11.82-3.8a16.36,16.36,0,0,1,5.76,3.65q5.85,5.46,4.7,11.35a12.94,12.94,0,0,1-3.41,6.21Zm.29-4.21,2-2.13Q58.17,58.59,55,53.21A16.72,16.72,0,0,0,52.21,50Q46,44.15,40.55,48a12.68,12.68,0,0,0-1.9,1.69l-2,2.12Z"/><path class="cls-1" d="M77.29,45.72,64.83,23.28l3.43-1.91,11,9.62,4.2,3.77.15-.08-1.06-5.51-2.4-14.39,3.43-1.9L96,35.31l-2.66,1.48L86.46,24.36c-.7-1.27-1.81-3.54-3.31-6.8l-.12.07,1.08,6.08,2.2,14-1.88,1-10.72-9.3-4.63-4.11-.12.06q3.36,5.26,4,6.42l6.9,12.43Z"/><path class="cls-1" d="M113.13,30.19a9.8,9.8,0,0,1-9-1.68A15.14,15.14,0,0,1,99,20.21Q97.17,13.52,100,9a10,10,0,0,1,6.11-4.44,9.76,9.76,0,0,1,9.09,1.72,15,15,0,0,1,5,8.14q1.83,6.66-.88,11.23A9.92,9.92,0,0,1,113.13,30.19Zm-.76-2.74a6.58,6.58,0,0,0,4.85-5.08,13.85,13.85,0,0,0-.28-7.09c-1.06-3.86-2.86-6.41-5.39-7.62a6.94,6.94,0,0,0-9.66,4.85,13.75,13.75,0,0,0,.35,6.81q1.58,5.73,5.29,7.66A6.5,6.5,0,0,0,112.37,27.45Z"/><path class="cls-1" d="M148.34,25.12l-3.68.2-6.81-10.51-4.61.25.6,10.86-3.28.17L129.16.46,137.21,0q8.91-.42,9.34,6.72a6.7,6.7,0,0,1-3.93,7,13,13,0,0,1-1.48.56ZM132.58,2.91l.52,9.52,4.3-.23q6.18-.4,5.94-5.29a4,4,0,0,0-3.75-4.14,13,13,0,0,0-2.71-.09Z"/><path class="cls-1" d="M154.39,25.68,157.85.24l14.69,2L172.18,5,160.73,3.4l-1.09,8,9.62,1.31-.37,2.74-9.62-1.31L158,23.38,169.83,25l-.37,2.74Z"/><path class="cls-1" d="M187.61,23.82l.88-2.08,14.33,6.05-.88,2.07Z"/><path class="cls-1" d="M227,57.52l-2.9-2.28L226,42.85,222.37,40l-6.73,8.54-2.58-2L229,26.34l6.33,5q7,5.58,2.56,11.21a6.71,6.71,0,0,1-7.55,2.62,14.72,14.72,0,0,1-1.47-.56Zm2.86-27.08L224,37.93l3.38,2.67c3.26,2.51,5.92,2.5,8,0a4.05,4.05,0,0,0-.07-5.59,12.87,12.87,0,0,0-2-1.86Z"/><path class="cls-1" d="M231.2,62l19.43-16.78,9.69,11.23-2.07,1.79-7.55-8.75-6.11,5.27,6.35,7.35-2.1,1.81-6.34-7.35-7.06,6.1,7.79,9-2.09,1.81Z"/><path class="cls-1" d="M252.25,91.58l5.54-6-4.69-8.11-8,1.76-1.64-2.84L270,71l1.82,3.13L254,94.53Zm3.51-14.75,3.88,6.71,2.79-3c1.16-1.31,3.24-3.51,6.21-6.6l-.07-.12q-4.35,1.14-8.8,2.13Z"/><path class="cls-1" d="M255.91,99.35l24.35-8.12,2.05,6.13q2.55,7.65-2.31,12.19a16.38,16.38,0,0,1-6,3.32q-7.57,2.53-12.21-1.29a12.92,12.92,0,0,1-3.83-6Zm3.57,2.27.92,2.76q2.14,6.42,8.4,6.17a16.3,16.3,0,0,0,4.18-.86q8.08-2.68,7.32-9.28a13.53,13.53,0,0,0-.57-2.48l-.92-2.76Z"/><path class="cls-1" d="M264.58,133.7l25.66-.42.07,3.93-13.66,5.15q-.11,0-5.3,1.93v.17l5.36,1.65,13.82,4.67.06,3.93-25.67.42-.05-3,14.22-.23q2.19,0,7.56.29V152l-5.88-1.92-13.41-4.67,0-2.15,13.25-5.07,5.81-2.15v-.13c-4.15.32-6.66.48-7.55.5l-14.22.23Z"/><path class="cls-1" d="M261.19,172.66a9.81,9.81,0,0,1,5.77-7.12,15.25,15.25,0,0,1,9.74-.54q6.75,1.58,9.4,6.19a10,10,0,0,1,1,7.5,9.74,9.74,0,0,1-5.84,7.16,14.93,14.93,0,0,1-9.52.49q-6.72-1.56-9.45-6.13A9.94,9.94,0,0,1,261.19,172.66Zm2.77.64a6.56,6.56,0,0,0,2.16,6.68,13.69,13.69,0,0,0,6.36,3.13q5.86,1.37,9.28-1.1a7,7,0,0,0,.34-10.8,13.75,13.75,0,0,0-6.16-3q-5.79-1.35-9.25,1A6.53,6.53,0,0,0,264,173.3Z"/><path class="cls-1" d="M248.85,206l1.59-3.33,12.48-1,2-4.17-9.82-4.66,1.41-3,23.19,11-3.46,7.29q-3.89,8-10.36,5a6.73,6.73,0,0,1-4.23-6.78,15.08,15.08,0,0,1,.21-1.57Zm27-3.24-8.61-4.09-1.85,3.89c-1.73,3.74-1.12,6.33,1.81,7.74a4,4,0,0,0,5.43-1.31,13.51,13.51,0,0,0,1.38-2.34Z"/><path class="cls-1" d="M245.46,211l20.66,15.23-8.8,11.94-2.2-1.62,6.86-9.3-6.5-4.78-5.76,7.81-2.23-1.64,5.76-7.82-7.51-5.53-7.07,9.6-2.23-1.64Z"/><path class="cls-1" d="M222.84,248l1.26,1.88-12.92,8.66-1.26-1.88Z"/><polygon class="cls-1" points="144.82 130.35 173.83 80.1 115.81 80.1 144.82 130.35"/><polygon class="cls-1" points="144.82 210.76 173.83 160.51 115.81 160.51 144.82 210.76"/></g></g></svg>