<svg xmlns="http://www.w3.org/2000/svg" viewBox="0 0 95 95"><defs><style>.cls-1{fill:#dbdbdb;}</style></defs><g id="圖層_2" data-name="圖層 2"><g id="圖層_1-2" data-name="圖層 1"><polygon class="cls-1" points="84.52 74.3 84.52 59.21 66.04 59.21 84.52 74.3"/><polygon class="cls-1" points="52.5 84.53 84.34 84.53 52.5 58.3 52.5 84.53"/><polygon class="cls-1" points="42.5 84.53 42.5 58.25 10.71 84.53 42.5 84.53"/><polygon class="cls-1" points="10.48 59.21 10.48 74.35 29.04 59.21 10.48 59.21"/><polygon class="cls-1" points="52.5 51.89 84.52 51.89 84.52 10.78 52.5 40.42 52.5 51.89"/><polygon class="cls-1" points="21.54 10.47 47.46 33.08 72.76 10.47 21.54 10.47"/><polygon class="cls-1" points="10.48 51.89 42.5 51.89 42.5 40.42 10.48 10.78 10.48 51.89"/><path class="cls-1" d="M91.53,0H3.47A3.48,3.48,0,0,0,0,3.47V91.53A3.48,3.48,0,0,0,3.47,95H91.53A3.48,3.48,0,0,0,95,91.53V3.47A3.48,3.48,0,0,0,91.53,0ZM87.88,84.41a3.47,3.47,0,0,1-3.47,3.47H10.59a3.47,3.47,0,0,1-3.47-3.47V10.59a3.47,3.47,0,0,1,3.47-3.47H84.41a3.47,3.47,0,0,1,3.47,3.47Z"/></g></g></svg>